<mxfile host="app.diagrams.net" modified="2023-04-18T12:48:44.572Z" agent="Mozilla/5.0 (Windows NT 10.0; Win64; x64) AppleWebKit/537.36 (KHTML, like Gecko) Chrome/112.0.0.0 Safari/537.36" etag="0Dgj7AIxl_jnNtbm3Sdn" version="21.1.8" type="device">
  <diagram id="C5RBs43oDa-KdzZeNtuy" name="Page-1">
    <mxGraphModel dx="1050" dy="549" grid="1" gridSize="10" guides="1" tooltips="1" connect="1" arrows="1" fold="1" page="1" pageScale="1" pageWidth="827" pageHeight="1169" math="0" shadow="0">
      <root>
        <mxCell id="WIyWlLk6GJQsqaUBKTNV-0" />
        <mxCell id="WIyWlLk6GJQsqaUBKTNV-1" parent="WIyWlLk6GJQsqaUBKTNV-0" />
        <mxCell id="bO6CmYNc91nRtHpn1Cyj-3" style="edgeStyle=orthogonalEdgeStyle;rounded=0;orthogonalLoop=1;jettySize=auto;html=1;" edge="1" parent="WIyWlLk6GJQsqaUBKTNV-1" source="bO6CmYNc91nRtHpn1Cyj-0" target="bO6CmYNc91nRtHpn1Cyj-2">
          <mxGeometry relative="1" as="geometry" />
        </mxCell>
        <mxCell id="bO6CmYNc91nRtHpn1Cyj-0" value="CPU" style="rounded=0;whiteSpace=wrap;html=1;" vertex="1" parent="WIyWlLk6GJQsqaUBKTNV-1">
          <mxGeometry x="40" y="40" width="110" height="40" as="geometry" />
        </mxCell>
        <mxCell id="bO6CmYNc91nRtHpn1Cyj-1" value="vertices data" style="rounded=0;whiteSpace=wrap;html=1;" vertex="1" parent="WIyWlLk6GJQsqaUBKTNV-1">
          <mxGeometry x="40" y="100" width="110" height="30" as="geometry" />
        </mxCell>
        <mxCell id="bO6CmYNc91nRtHpn1Cyj-56" style="edgeStyle=orthogonalEdgeStyle;rounded=0;orthogonalLoop=1;jettySize=auto;html=1;" edge="1" parent="WIyWlLk6GJQsqaUBKTNV-1" source="bO6CmYNc91nRtHpn1Cyj-2" target="bO6CmYNc91nRtHpn1Cyj-5">
          <mxGeometry relative="1" as="geometry" />
        </mxCell>
        <mxCell id="bO6CmYNc91nRtHpn1Cyj-2" value="GPU" style="rounded=0;whiteSpace=wrap;html=1;" vertex="1" parent="WIyWlLk6GJQsqaUBKTNV-1">
          <mxGeometry x="280" y="40" width="110" height="40" as="geometry" />
        </mxCell>
        <mxCell id="bO6CmYNc91nRtHpn1Cyj-4" value="Draw Call" style="text;html=1;strokeColor=none;fillColor=none;align=center;verticalAlign=middle;whiteSpace=wrap;rounded=0;" vertex="1" parent="WIyWlLk6GJQsqaUBKTNV-1">
          <mxGeometry x="190" y="30" width="60" height="30" as="geometry" />
        </mxCell>
        <mxCell id="bO6CmYNc91nRtHpn1Cyj-57" style="edgeStyle=orthogonalEdgeStyle;rounded=0;orthogonalLoop=1;jettySize=auto;html=1;" edge="1" parent="WIyWlLk6GJQsqaUBKTNV-1" source="bO6CmYNc91nRtHpn1Cyj-5" target="bO6CmYNc91nRtHpn1Cyj-11">
          <mxGeometry relative="1" as="geometry" />
        </mxCell>
        <mxCell id="bO6CmYNc91nRtHpn1Cyj-5" value="Geometry" style="rounded=0;whiteSpace=wrap;html=1;" vertex="1" parent="WIyWlLk6GJQsqaUBKTNV-1">
          <mxGeometry x="280" y="100" width="110" height="30" as="geometry" />
        </mxCell>
        <mxCell id="bO6CmYNc91nRtHpn1Cyj-6" value="World Transformation" style="rounded=0;whiteSpace=wrap;html=1;" vertex="1" parent="WIyWlLk6GJQsqaUBKTNV-1">
          <mxGeometry x="400" y="100" width="140" height="30" as="geometry" />
        </mxCell>
        <mxCell id="bO6CmYNc91nRtHpn1Cyj-7" value="View Transformation" style="rounded=0;whiteSpace=wrap;html=1;" vertex="1" parent="WIyWlLk6GJQsqaUBKTNV-1">
          <mxGeometry x="400" y="140" width="140" height="30" as="geometry" />
        </mxCell>
        <mxCell id="bO6CmYNc91nRtHpn1Cyj-10" value="Projection Transformation" style="rounded=0;whiteSpace=wrap;html=1;" vertex="1" parent="WIyWlLk6GJQsqaUBKTNV-1">
          <mxGeometry x="400" y="180" width="140" height="30" as="geometry" />
        </mxCell>
        <mxCell id="bO6CmYNc91nRtHpn1Cyj-58" style="edgeStyle=orthogonalEdgeStyle;rounded=0;orthogonalLoop=1;jettySize=auto;html=1;entryX=0.5;entryY=0;entryDx=0;entryDy=0;" edge="1" parent="WIyWlLk6GJQsqaUBKTNV-1" source="bO6CmYNc91nRtHpn1Cyj-11" target="bO6CmYNc91nRtHpn1Cyj-54">
          <mxGeometry relative="1" as="geometry" />
        </mxCell>
        <mxCell id="bO6CmYNc91nRtHpn1Cyj-11" value="Rasterising" style="rounded=0;whiteSpace=wrap;html=1;" vertex="1" parent="WIyWlLk6GJQsqaUBKTNV-1">
          <mxGeometry x="280" y="230" width="110" height="30" as="geometry" />
        </mxCell>
        <mxCell id="bO6CmYNc91nRtHpn1Cyj-12" value="Fragment (Pixel 전단계)" style="rounded=0;whiteSpace=wrap;html=1;" vertex="1" parent="WIyWlLk6GJQsqaUBKTNV-1">
          <mxGeometry x="400" y="230" width="140" height="30" as="geometry" />
        </mxCell>
        <mxCell id="bO6CmYNc91nRtHpn1Cyj-22" value="" style="rounded=0;whiteSpace=wrap;html=1;" vertex="1" parent="WIyWlLk6GJQsqaUBKTNV-1">
          <mxGeometry x="600" y="240" width="30" height="30" as="geometry" />
        </mxCell>
        <mxCell id="bO6CmYNc91nRtHpn1Cyj-25" value="" style="rounded=0;whiteSpace=wrap;html=1;" vertex="1" parent="WIyWlLk6GJQsqaUBKTNV-1">
          <mxGeometry x="600" y="270" width="30" height="30" as="geometry" />
        </mxCell>
        <mxCell id="bO6CmYNc91nRtHpn1Cyj-26" value="" style="rounded=0;whiteSpace=wrap;html=1;" vertex="1" parent="WIyWlLk6GJQsqaUBKTNV-1">
          <mxGeometry x="600" y="300" width="30" height="30" as="geometry" />
        </mxCell>
        <mxCell id="bO6CmYNc91nRtHpn1Cyj-27" value="" style="rounded=0;whiteSpace=wrap;html=1;" vertex="1" parent="WIyWlLk6GJQsqaUBKTNV-1">
          <mxGeometry x="600" y="330" width="30" height="30" as="geometry" />
        </mxCell>
        <mxCell id="bO6CmYNc91nRtHpn1Cyj-28" value="" style="rounded=0;whiteSpace=wrap;html=1;" vertex="1" parent="WIyWlLk6GJQsqaUBKTNV-1">
          <mxGeometry x="600" y="360" width="30" height="30" as="geometry" />
        </mxCell>
        <mxCell id="bO6CmYNc91nRtHpn1Cyj-29" value="" style="rounded=0;whiteSpace=wrap;html=1;" vertex="1" parent="WIyWlLk6GJQsqaUBKTNV-1">
          <mxGeometry x="630" y="360" width="30" height="30" as="geometry" />
        </mxCell>
        <mxCell id="bO6CmYNc91nRtHpn1Cyj-30" value="" style="rounded=0;whiteSpace=wrap;html=1;" vertex="1" parent="WIyWlLk6GJQsqaUBKTNV-1">
          <mxGeometry x="630" y="330" width="30" height="30" as="geometry" />
        </mxCell>
        <mxCell id="bO6CmYNc91nRtHpn1Cyj-31" value="" style="rounded=0;whiteSpace=wrap;html=1;fillColor=#dae8fc;strokeColor=#6c8ebf;" vertex="1" parent="WIyWlLk6GJQsqaUBKTNV-1">
          <mxGeometry x="630" y="300" width="30" height="30" as="geometry" />
        </mxCell>
        <mxCell id="bO6CmYNc91nRtHpn1Cyj-32" value="" style="rounded=0;whiteSpace=wrap;html=1;fillColor=#dae8fc;strokeColor=#6c8ebf;" vertex="1" parent="WIyWlLk6GJQsqaUBKTNV-1">
          <mxGeometry x="630" y="270" width="30" height="30" as="geometry" />
        </mxCell>
        <mxCell id="bO6CmYNc91nRtHpn1Cyj-33" value="" style="rounded=0;whiteSpace=wrap;html=1;fillColor=#dae8fc;strokeColor=#6c8ebf;" vertex="1" parent="WIyWlLk6GJQsqaUBKTNV-1">
          <mxGeometry x="630" y="240" width="30" height="30" as="geometry" />
        </mxCell>
        <mxCell id="bO6CmYNc91nRtHpn1Cyj-34" value="" style="rounded=0;whiteSpace=wrap;html=1;" vertex="1" parent="WIyWlLk6GJQsqaUBKTNV-1">
          <mxGeometry x="660" y="240" width="30" height="30" as="geometry" />
        </mxCell>
        <mxCell id="bO6CmYNc91nRtHpn1Cyj-35" value="" style="rounded=0;whiteSpace=wrap;html=1;fillColor=#dae8fc;strokeColor=#6c8ebf;" vertex="1" parent="WIyWlLk6GJQsqaUBKTNV-1">
          <mxGeometry x="660" y="270" width="30" height="30" as="geometry" />
        </mxCell>
        <mxCell id="bO6CmYNc91nRtHpn1Cyj-36" value="" style="rounded=0;whiteSpace=wrap;html=1;fillColor=#dae8fc;strokeColor=#6c8ebf;" vertex="1" parent="WIyWlLk6GJQsqaUBKTNV-1">
          <mxGeometry x="660" y="300" width="30" height="30" as="geometry" />
        </mxCell>
        <mxCell id="bO6CmYNc91nRtHpn1Cyj-37" value="" style="rounded=0;whiteSpace=wrap;html=1;fillColor=#dae8fc;strokeColor=#6c8ebf;" vertex="1" parent="WIyWlLk6GJQsqaUBKTNV-1">
          <mxGeometry x="660" y="330" width="30" height="30" as="geometry" />
        </mxCell>
        <mxCell id="bO6CmYNc91nRtHpn1Cyj-38" value="" style="rounded=0;whiteSpace=wrap;html=1;fillColor=#dae8fc;strokeColor=#6c8ebf;" vertex="1" parent="WIyWlLk6GJQsqaUBKTNV-1">
          <mxGeometry x="660" y="360" width="30" height="30" as="geometry" />
        </mxCell>
        <mxCell id="bO6CmYNc91nRtHpn1Cyj-39" value="" style="rounded=0;whiteSpace=wrap;html=1;" vertex="1" parent="WIyWlLk6GJQsqaUBKTNV-1">
          <mxGeometry x="690" y="360" width="30" height="30" as="geometry" />
        </mxCell>
        <mxCell id="bO6CmYNc91nRtHpn1Cyj-40" value="" style="rounded=0;whiteSpace=wrap;html=1;fillColor=#dae8fc;strokeColor=#6c8ebf;" vertex="1" parent="WIyWlLk6GJQsqaUBKTNV-1">
          <mxGeometry x="690" y="330" width="30" height="30" as="geometry" />
        </mxCell>
        <mxCell id="bO6CmYNc91nRtHpn1Cyj-41" value="" style="rounded=0;whiteSpace=wrap;html=1;fillColor=#dae8fc;strokeColor=#6c8ebf;" vertex="1" parent="WIyWlLk6GJQsqaUBKTNV-1">
          <mxGeometry x="690" y="300" width="30" height="30" as="geometry" />
        </mxCell>
        <mxCell id="bO6CmYNc91nRtHpn1Cyj-42" value="" style="rounded=0;whiteSpace=wrap;html=1;fillColor=#dae8fc;strokeColor=#6c8ebf;" vertex="1" parent="WIyWlLk6GJQsqaUBKTNV-1">
          <mxGeometry x="690" y="270" width="30" height="30" as="geometry" />
        </mxCell>
        <mxCell id="bO6CmYNc91nRtHpn1Cyj-43" value="" style="rounded=0;whiteSpace=wrap;html=1;" vertex="1" parent="WIyWlLk6GJQsqaUBKTNV-1">
          <mxGeometry x="690" y="240" width="30" height="30" as="geometry" />
        </mxCell>
        <mxCell id="bO6CmYNc91nRtHpn1Cyj-44" value="" style="rounded=0;whiteSpace=wrap;html=1;" vertex="1" parent="WIyWlLk6GJQsqaUBKTNV-1">
          <mxGeometry x="720" y="360" width="30" height="30" as="geometry" />
        </mxCell>
        <mxCell id="bO6CmYNc91nRtHpn1Cyj-45" value="" style="rounded=0;whiteSpace=wrap;html=1;" vertex="1" parent="WIyWlLk6GJQsqaUBKTNV-1">
          <mxGeometry x="720" y="330" width="30" height="30" as="geometry" />
        </mxCell>
        <mxCell id="bO6CmYNc91nRtHpn1Cyj-46" value="" style="rounded=0;whiteSpace=wrap;html=1;fillColor=#dae8fc;strokeColor=#6c8ebf;" vertex="1" parent="WIyWlLk6GJQsqaUBKTNV-1">
          <mxGeometry x="720" y="300" width="30" height="30" as="geometry" />
        </mxCell>
        <mxCell id="bO6CmYNc91nRtHpn1Cyj-47" value="" style="rounded=0;whiteSpace=wrap;html=1;" vertex="1" parent="WIyWlLk6GJQsqaUBKTNV-1">
          <mxGeometry x="720" y="270" width="30" height="30" as="geometry" />
        </mxCell>
        <mxCell id="bO6CmYNc91nRtHpn1Cyj-48" value="" style="rounded=0;whiteSpace=wrap;html=1;" vertex="1" parent="WIyWlLk6GJQsqaUBKTNV-1">
          <mxGeometry x="720" y="240" width="30" height="30" as="geometry" />
        </mxCell>
        <mxCell id="bO6CmYNc91nRtHpn1Cyj-54" value="Output" style="rounded=0;whiteSpace=wrap;html=1;" vertex="1" parent="WIyWlLk6GJQsqaUBKTNV-1">
          <mxGeometry x="280" y="380" width="110" height="30" as="geometry" />
        </mxCell>
        <mxCell id="bO6CmYNc91nRtHpn1Cyj-55" value="Pixel" style="rounded=0;whiteSpace=wrap;html=1;" vertex="1" parent="WIyWlLk6GJQsqaUBKTNV-1">
          <mxGeometry x="400" y="380" width="140" height="30" as="geometry" />
        </mxCell>
        <mxCell id="bO6CmYNc91nRtHpn1Cyj-59" value="UI Architecture patterns" style="rounded=0;whiteSpace=wrap;html=1;fontStyle=1;fillColor=#0050ef;fontColor=#ffffff;strokeColor=#001DBC;" vertex="1" parent="WIyWlLk6GJQsqaUBKTNV-1">
          <mxGeometry x="880" y="40" width="160" height="40" as="geometry" />
        </mxCell>
        <mxCell id="bO6CmYNc91nRtHpn1Cyj-60" value="MVC&lt;br&gt;((Data)Model - (UI)View - Controller)" style="rounded=0;whiteSpace=wrap;html=1;" vertex="1" parent="WIyWlLk6GJQsqaUBKTNV-1">
          <mxGeometry x="880" y="120" width="200" height="40" as="geometry" />
        </mxCell>
        <mxCell id="bO6CmYNc91nRtHpn1Cyj-64" value="Model" style="rounded=0;whiteSpace=wrap;html=1;" vertex="1" parent="WIyWlLk6GJQsqaUBKTNV-1">
          <mxGeometry x="1160" y="320" width="120" height="60" as="geometry" />
        </mxCell>
        <mxCell id="bO6CmYNc91nRtHpn1Cyj-65" value="View" style="rounded=0;whiteSpace=wrap;html=1;" vertex="1" parent="WIyWlLk6GJQsqaUBKTNV-1">
          <mxGeometry x="1160" y="160" width="120" height="60" as="geometry" />
        </mxCell>
        <mxCell id="bO6CmYNc91nRtHpn1Cyj-66" value="Controller" style="rounded=0;whiteSpace=wrap;html=1;" vertex="1" parent="WIyWlLk6GJQsqaUBKTNV-1">
          <mxGeometry x="960" y="240" width="120" height="60" as="geometry" />
        </mxCell>
        <mxCell id="bO6CmYNc91nRtHpn1Cyj-67" value="" style="endArrow=classic;html=1;rounded=0;" edge="1" parent="WIyWlLk6GJQsqaUBKTNV-1" source="bO6CmYNc91nRtHpn1Cyj-66" target="bO6CmYNc91nRtHpn1Cyj-65">
          <mxGeometry width="50" height="50" relative="1" as="geometry">
            <mxPoint x="1260" y="350" as="sourcePoint" />
            <mxPoint x="1310" y="300" as="targetPoint" />
          </mxGeometry>
        </mxCell>
        <mxCell id="bO6CmYNc91nRtHpn1Cyj-68" value="" style="endArrow=classic;html=1;rounded=0;" edge="1" parent="WIyWlLk6GJQsqaUBKTNV-1" source="bO6CmYNc91nRtHpn1Cyj-66" target="bO6CmYNc91nRtHpn1Cyj-64">
          <mxGeometry width="50" height="50" relative="1" as="geometry">
            <mxPoint x="1090" y="256" as="sourcePoint" />
            <mxPoint x="1170" y="224" as="targetPoint" />
          </mxGeometry>
        </mxCell>
        <mxCell id="bO6CmYNc91nRtHpn1Cyj-70" value="Notification" style="endArrow=open;endSize=12;dashed=1;html=1;rounded=0;" edge="1" parent="WIyWlLk6GJQsqaUBKTNV-1" source="bO6CmYNc91nRtHpn1Cyj-64" target="bO6CmYNc91nRtHpn1Cyj-65">
          <mxGeometry width="160" relative="1" as="geometry">
            <mxPoint x="1200" y="330" as="sourcePoint" />
            <mxPoint x="1360" y="330" as="targetPoint" />
          </mxGeometry>
        </mxCell>
        <mxCell id="bO6CmYNc91nRtHpn1Cyj-71" value="" style="rounded=0;whiteSpace=wrap;html=1;" vertex="1" parent="WIyWlLk6GJQsqaUBKTNV-1">
          <mxGeometry x="1440" y="160" width="160" height="220" as="geometry" />
        </mxCell>
        <mxCell id="bO6CmYNc91nRtHpn1Cyj-72" value="" style="rounded=0;whiteSpace=wrap;html=1;" vertex="1" parent="WIyWlLk6GJQsqaUBKTNV-1">
          <mxGeometry x="1450" y="170" width="40" height="35" as="geometry" />
        </mxCell>
        <mxCell id="bO6CmYNc91nRtHpn1Cyj-73" value="" style="rounded=0;whiteSpace=wrap;html=1;" vertex="1" parent="WIyWlLk6GJQsqaUBKTNV-1">
          <mxGeometry x="1500" y="170" width="40" height="35" as="geometry" />
        </mxCell>
        <mxCell id="bO6CmYNc91nRtHpn1Cyj-74" value="" style="rounded=0;whiteSpace=wrap;html=1;" vertex="1" parent="WIyWlLk6GJQsqaUBKTNV-1">
          <mxGeometry x="1550" y="170" width="40" height="35" as="geometry" />
        </mxCell>
        <mxCell id="bO6CmYNc91nRtHpn1Cyj-75" value="" style="rounded=0;whiteSpace=wrap;html=1;" vertex="1" parent="WIyWlLk6GJQsqaUBKTNV-1">
          <mxGeometry x="1450" y="210" width="40" height="35" as="geometry" />
        </mxCell>
        <mxCell id="bO6CmYNc91nRtHpn1Cyj-76" value="" style="rounded=0;whiteSpace=wrap;html=1;" vertex="1" parent="WIyWlLk6GJQsqaUBKTNV-1">
          <mxGeometry x="1500" y="210" width="40" height="35" as="geometry" />
        </mxCell>
        <mxCell id="bO6CmYNc91nRtHpn1Cyj-77" value="" style="rounded=0;whiteSpace=wrap;html=1;" vertex="1" parent="WIyWlLk6GJQsqaUBKTNV-1">
          <mxGeometry x="1550" y="210" width="40" height="35" as="geometry" />
        </mxCell>
        <mxCell id="bO6CmYNc91nRtHpn1Cyj-78" value="" style="rounded=0;whiteSpace=wrap;html=1;" vertex="1" parent="WIyWlLk6GJQsqaUBKTNV-1">
          <mxGeometry x="1450" y="252.5" width="40" height="35" as="geometry" />
        </mxCell>
        <mxCell id="bO6CmYNc91nRtHpn1Cyj-79" value="" style="rounded=0;whiteSpace=wrap;html=1;" vertex="1" parent="WIyWlLk6GJQsqaUBKTNV-1">
          <mxGeometry x="1500" y="252.5" width="40" height="35" as="geometry" />
        </mxCell>
        <mxCell id="bO6CmYNc91nRtHpn1Cyj-80" value="" style="rounded=0;whiteSpace=wrap;html=1;" vertex="1" parent="WIyWlLk6GJQsqaUBKTNV-1">
          <mxGeometry x="1550" y="252.5" width="40" height="35" as="geometry" />
        </mxCell>
        <mxCell id="bO6CmYNc91nRtHpn1Cyj-81" value="" style="rounded=0;whiteSpace=wrap;html=1;" vertex="1" parent="WIyWlLk6GJQsqaUBKTNV-1">
          <mxGeometry x="1450" y="295" width="40" height="35" as="geometry" />
        </mxCell>
        <mxCell id="bO6CmYNc91nRtHpn1Cyj-82" value="" style="rounded=0;whiteSpace=wrap;html=1;" vertex="1" parent="WIyWlLk6GJQsqaUBKTNV-1">
          <mxGeometry x="1500" y="295" width="40" height="35" as="geometry" />
        </mxCell>
        <mxCell id="bO6CmYNc91nRtHpn1Cyj-83" value="" style="rounded=0;whiteSpace=wrap;html=1;" vertex="1" parent="WIyWlLk6GJQsqaUBKTNV-1">
          <mxGeometry x="1550" y="295" width="40" height="35" as="geometry" />
        </mxCell>
        <mxCell id="bO6CmYNc91nRtHpn1Cyj-84" value="" style="rounded=0;whiteSpace=wrap;html=1;" vertex="1" parent="WIyWlLk6GJQsqaUBKTNV-1">
          <mxGeometry x="1450" y="340" width="40" height="35" as="geometry" />
        </mxCell>
        <mxCell id="bO6CmYNc91nRtHpn1Cyj-85" value="" style="rounded=0;whiteSpace=wrap;html=1;" vertex="1" parent="WIyWlLk6GJQsqaUBKTNV-1">
          <mxGeometry x="1500" y="340" width="40" height="35" as="geometry" />
        </mxCell>
        <mxCell id="bO6CmYNc91nRtHpn1Cyj-86" value="" style="rounded=0;whiteSpace=wrap;html=1;" vertex="1" parent="WIyWlLk6GJQsqaUBKTNV-1">
          <mxGeometry x="1550" y="340" width="40" height="35" as="geometry" />
        </mxCell>
        <mxCell id="bO6CmYNc91nRtHpn1Cyj-89" value="" style="shape=cylinder3;whiteSpace=wrap;html=1;boundedLbl=1;backgroundOutline=1;size=6.9000091552734375;fillColor=#e51400;fontColor=#ffffff;strokeColor=#B20000;" vertex="1" parent="WIyWlLk6GJQsqaUBKTNV-1">
          <mxGeometry x="1457.5" y="173.13" width="25" height="28.75" as="geometry" />
        </mxCell>
        <mxCell id="bO6CmYNc91nRtHpn1Cyj-90" value="" style="shape=cylinder3;whiteSpace=wrap;html=1;boundedLbl=1;backgroundOutline=1;size=6.9000091552734375;fillColor=#e51400;fontColor=#ffffff;strokeColor=#B20000;" vertex="1" parent="WIyWlLk6GJQsqaUBKTNV-1">
          <mxGeometry x="1350" y="260" width="25" height="28.75" as="geometry" />
        </mxCell>
        <mxCell id="bO6CmYNc91nRtHpn1Cyj-91" value="MVP&lt;br&gt;((Data)Model - (UI)View - Presenter)" style="rounded=0;whiteSpace=wrap;html=1;" vertex="1" parent="WIyWlLk6GJQsqaUBKTNV-1">
          <mxGeometry x="880" y="440" width="200" height="40" as="geometry" />
        </mxCell>
        <mxCell id="bO6CmYNc91nRtHpn1Cyj-92" value="Model" style="rounded=0;whiteSpace=wrap;html=1;" vertex="1" parent="WIyWlLk6GJQsqaUBKTNV-1">
          <mxGeometry x="1080" y="680" width="120" height="60" as="geometry" />
        </mxCell>
        <mxCell id="bO6CmYNc91nRtHpn1Cyj-93" value="View" style="rounded=0;whiteSpace=wrap;html=1;" vertex="1" parent="WIyWlLk6GJQsqaUBKTNV-1">
          <mxGeometry x="1080" y="490" width="120" height="60" as="geometry" />
        </mxCell>
        <mxCell id="bO6CmYNc91nRtHpn1Cyj-94" value="Presenter" style="rounded=0;whiteSpace=wrap;html=1;" vertex="1" parent="WIyWlLk6GJQsqaUBKTNV-1">
          <mxGeometry x="1080" y="585" width="120" height="60" as="geometry" />
        </mxCell>
        <mxCell id="bO6CmYNc91nRtHpn1Cyj-95" value="" style="endArrow=classic;html=1;rounded=0;" edge="1" source="bO6CmYNc91nRtHpn1Cyj-94" target="bO6CmYNc91nRtHpn1Cyj-93" parent="WIyWlLk6GJQsqaUBKTNV-1">
          <mxGeometry width="50" height="50" relative="1" as="geometry">
            <mxPoint x="1260" y="700" as="sourcePoint" />
            <mxPoint x="1310" y="650" as="targetPoint" />
          </mxGeometry>
        </mxCell>
        <mxCell id="bO6CmYNc91nRtHpn1Cyj-96" value="" style="endArrow=classic;html=1;rounded=0;entryX=0.25;entryY=0;entryDx=0;entryDy=0;exitX=1;exitY=0.75;exitDx=0;exitDy=0;" edge="1" source="bO6CmYNc91nRtHpn1Cyj-94" target="bO6CmYNc91nRtHpn1Cyj-102" parent="WIyWlLk6GJQsqaUBKTNV-1">
          <mxGeometry width="50" height="50" relative="1" as="geometry">
            <mxPoint x="1090" y="606" as="sourcePoint" />
            <mxPoint x="1170" y="574" as="targetPoint" />
          </mxGeometry>
        </mxCell>
        <mxCell id="bO6CmYNc91nRtHpn1Cyj-98" value="" style="endArrow=classic;html=1;rounded=0;" edge="1" parent="WIyWlLk6GJQsqaUBKTNV-1" source="bO6CmYNc91nRtHpn1Cyj-93" target="bO6CmYNc91nRtHpn1Cyj-94">
          <mxGeometry width="50" height="50" relative="1" as="geometry">
            <mxPoint x="1150" y="595" as="sourcePoint" />
            <mxPoint x="1150" y="560" as="targetPoint" />
          </mxGeometry>
        </mxCell>
        <mxCell id="bO6CmYNc91nRtHpn1Cyj-99" value="1" style="text;html=1;strokeColor=none;fillColor=none;align=center;verticalAlign=middle;whiteSpace=wrap;rounded=0;" vertex="1" parent="WIyWlLk6GJQsqaUBKTNV-1">
          <mxGeometry x="1120" y="530" width="20" height="30" as="geometry" />
        </mxCell>
        <mxCell id="bO6CmYNc91nRtHpn1Cyj-100" value="1" style="text;html=1;strokeColor=none;fillColor=none;align=center;verticalAlign=middle;whiteSpace=wrap;rounded=0;" vertex="1" parent="WIyWlLk6GJQsqaUBKTNV-1">
          <mxGeometry x="1120" y="580" width="20" height="30" as="geometry" />
        </mxCell>
        <mxCell id="bO6CmYNc91nRtHpn1Cyj-102" value="Model" style="rounded=0;whiteSpace=wrap;html=1;" vertex="1" parent="WIyWlLk6GJQsqaUBKTNV-1">
          <mxGeometry x="1241" y="680" width="120" height="60" as="geometry" />
        </mxCell>
        <mxCell id="bO6CmYNc91nRtHpn1Cyj-104" value="" style="endArrow=classic;html=1;rounded=0;" edge="1" parent="WIyWlLk6GJQsqaUBKTNV-1" source="bO6CmYNc91nRtHpn1Cyj-94" target="bO6CmYNc91nRtHpn1Cyj-92">
          <mxGeometry width="50" height="50" relative="1" as="geometry">
            <mxPoint x="1201" y="655" as="sourcePoint" />
            <mxPoint x="1260" y="690" as="targetPoint" />
          </mxGeometry>
        </mxCell>
        <mxCell id="bO6CmYNc91nRtHpn1Cyj-105" value="Notification" style="endArrow=open;endSize=12;dashed=1;html=1;rounded=0;entryX=1;entryY=0.5;entryDx=0;entryDy=0;exitX=0.5;exitY=0;exitDx=0;exitDy=0;" edge="1" parent="WIyWlLk6GJQsqaUBKTNV-1" source="bO6CmYNc91nRtHpn1Cyj-102" target="bO6CmYNc91nRtHpn1Cyj-94">
          <mxGeometry width="160" relative="1" as="geometry">
            <mxPoint x="1230" y="330" as="sourcePoint" />
            <mxPoint x="1230" y="230" as="targetPoint" />
          </mxGeometry>
        </mxCell>
        <mxCell id="bO6CmYNc91nRtHpn1Cyj-106" value="Notification" style="endArrow=open;endSize=12;dashed=1;html=1;rounded=0;entryX=0.75;entryY=1;entryDx=0;entryDy=0;exitX=0.75;exitY=0;exitDx=0;exitDy=0;" edge="1" parent="WIyWlLk6GJQsqaUBKTNV-1" source="bO6CmYNc91nRtHpn1Cyj-92" target="bO6CmYNc91nRtHpn1Cyj-94">
          <mxGeometry width="160" relative="1" as="geometry">
            <mxPoint x="1273" y="690" as="sourcePoint" />
            <mxPoint x="1210" y="640" as="targetPoint" />
          </mxGeometry>
        </mxCell>
        <mxCell id="bO6CmYNc91nRtHpn1Cyj-107" value="Notification" style="endArrow=open;endSize=12;dashed=1;html=1;rounded=0;entryX=0.75;entryY=1;entryDx=0;entryDy=0;exitX=0.75;exitY=0;exitDx=0;exitDy=0;" edge="1" parent="WIyWlLk6GJQsqaUBKTNV-1" source="bO6CmYNc91nRtHpn1Cyj-94" target="bO6CmYNc91nRtHpn1Cyj-93">
          <mxGeometry width="160" relative="1" as="geometry">
            <mxPoint x="1311" y="690" as="sourcePoint" />
            <mxPoint x="1210" y="625" as="targetPoint" />
          </mxGeometry>
        </mxCell>
        <mxCell id="bO6CmYNc91nRtHpn1Cyj-109" value="MVVM&lt;br&gt;((Data)Model - (UI)View - ViewModel)" style="rounded=0;whiteSpace=wrap;html=1;" vertex="1" parent="WIyWlLk6GJQsqaUBKTNV-1">
          <mxGeometry x="880" y="800" width="240" height="40" as="geometry" />
        </mxCell>
        <mxCell id="bO6CmYNc91nRtHpn1Cyj-110" value="Model" style="rounded=0;whiteSpace=wrap;html=1;" vertex="1" parent="WIyWlLk6GJQsqaUBKTNV-1">
          <mxGeometry x="1080" y="1100" width="120" height="60" as="geometry" />
        </mxCell>
        <mxCell id="bO6CmYNc91nRtHpn1Cyj-113" style="edgeStyle=orthogonalEdgeStyle;rounded=0;orthogonalLoop=1;jettySize=auto;html=1;" edge="1" parent="WIyWlLk6GJQsqaUBKTNV-1" source="bO6CmYNc91nRtHpn1Cyj-112" target="bO6CmYNc91nRtHpn1Cyj-110">
          <mxGeometry relative="1" as="geometry" />
        </mxCell>
        <mxCell id="bO6CmYNc91nRtHpn1Cyj-112" value="ViewModel" style="rounded=0;whiteSpace=wrap;html=1;" vertex="1" parent="WIyWlLk6GJQsqaUBKTNV-1">
          <mxGeometry x="1080" y="1000" width="120" height="60" as="geometry" />
        </mxCell>
        <mxCell id="bO6CmYNc91nRtHpn1Cyj-114" value="Notification" style="endArrow=open;endSize=12;dashed=1;html=1;rounded=0;entryX=0.75;entryY=1;entryDx=0;entryDy=0;exitX=0.75;exitY=0;exitDx=0;exitDy=0;" edge="1" parent="WIyWlLk6GJQsqaUBKTNV-1" source="bO6CmYNc91nRtHpn1Cyj-110" target="bO6CmYNc91nRtHpn1Cyj-112">
          <mxGeometry width="160" relative="1" as="geometry">
            <mxPoint x="1180" y="750" as="sourcePoint" />
            <mxPoint x="1180" y="715" as="targetPoint" />
          </mxGeometry>
        </mxCell>
        <mxCell id="bO6CmYNc91nRtHpn1Cyj-116" style="edgeStyle=orthogonalEdgeStyle;rounded=0;orthogonalLoop=1;jettySize=auto;html=1;entryX=0.5;entryY=0;entryDx=0;entryDy=0;" edge="1" parent="WIyWlLk6GJQsqaUBKTNV-1" source="bO6CmYNc91nRtHpn1Cyj-115" target="bO6CmYNc91nRtHpn1Cyj-112">
          <mxGeometry relative="1" as="geometry" />
        </mxCell>
        <mxCell id="bO6CmYNc91nRtHpn1Cyj-115" value="View" style="rounded=0;whiteSpace=wrap;html=1;" vertex="1" parent="WIyWlLk6GJQsqaUBKTNV-1">
          <mxGeometry x="1080" y="870" width="120" height="60" as="geometry" />
        </mxCell>
        <mxCell id="bO6CmYNc91nRtHpn1Cyj-117" value="Binding" style="text;html=1;strokeColor=none;fillColor=none;align=center;verticalAlign=middle;whiteSpace=wrap;rounded=0;" vertex="1" parent="WIyWlLk6GJQsqaUBKTNV-1">
          <mxGeometry x="1090" y="960" width="50" height="30" as="geometry" />
        </mxCell>
        <mxCell id="bO6CmYNc91nRtHpn1Cyj-119" style="edgeStyle=orthogonalEdgeStyle;rounded=0;orthogonalLoop=1;jettySize=auto;html=1;" edge="1" parent="WIyWlLk6GJQsqaUBKTNV-1" source="bO6CmYNc91nRtHpn1Cyj-118" target="bO6CmYNc91nRtHpn1Cyj-112">
          <mxGeometry relative="1" as="geometry">
            <Array as="points">
              <mxPoint x="1290" y="960" />
              <mxPoint x="1140" y="960" />
            </Array>
          </mxGeometry>
        </mxCell>
        <mxCell id="bO6CmYNc91nRtHpn1Cyj-118" value="View" style="rounded=0;whiteSpace=wrap;html=1;" vertex="1" parent="WIyWlLk6GJQsqaUBKTNV-1">
          <mxGeometry x="1230" y="870" width="120" height="60" as="geometry" />
        </mxCell>
        <mxCell id="bO6CmYNc91nRtHpn1Cyj-120" value="Binding" style="text;html=1;strokeColor=none;fillColor=none;align=center;verticalAlign=middle;whiteSpace=wrap;rounded=0;" vertex="1" parent="WIyWlLk6GJQsqaUBKTNV-1">
          <mxGeometry x="1265" y="960" width="50" height="30" as="geometry" />
        </mxCell>
        <mxCell id="bO6CmYNc91nRtHpn1Cyj-122" style="edgeStyle=orthogonalEdgeStyle;rounded=0;orthogonalLoop=1;jettySize=auto;html=1;entryX=0.5;entryY=0;entryDx=0;entryDy=0;" edge="1" parent="WIyWlLk6GJQsqaUBKTNV-1" source="bO6CmYNc91nRtHpn1Cyj-121" target="bO6CmYNc91nRtHpn1Cyj-112">
          <mxGeometry relative="1" as="geometry">
            <Array as="points">
              <mxPoint x="990" y="960" />
              <mxPoint x="1140" y="960" />
            </Array>
          </mxGeometry>
        </mxCell>
        <mxCell id="bO6CmYNc91nRtHpn1Cyj-121" value="View" style="rounded=0;whiteSpace=wrap;html=1;" vertex="1" parent="WIyWlLk6GJQsqaUBKTNV-1">
          <mxGeometry x="930" y="870" width="120" height="60" as="geometry" />
        </mxCell>
        <mxCell id="bO6CmYNc91nRtHpn1Cyj-123" value="Binding" style="text;html=1;strokeColor=none;fillColor=none;align=center;verticalAlign=middle;whiteSpace=wrap;rounded=0;" vertex="1" parent="WIyWlLk6GJQsqaUBKTNV-1">
          <mxGeometry x="965" y="960" width="50" height="30" as="geometry" />
        </mxCell>
        <mxCell id="bO6CmYNc91nRtHpn1Cyj-124" value="Data Dependency Source" style="text;html=1;strokeColor=none;fillColor=none;align=center;verticalAlign=middle;whiteSpace=wrap;rounded=0;" vertex="1" parent="WIyWlLk6GJQsqaUBKTNV-1">
          <mxGeometry x="1205" y="1020" width="85" height="30" as="geometry" />
        </mxCell>
        <mxCell id="bO6CmYNc91nRtHpn1Cyj-125" value="Binded Properties" style="text;html=1;strokeColor=none;fillColor=none;align=center;verticalAlign=middle;whiteSpace=wrap;rounded=0;" vertex="1" parent="WIyWlLk6GJQsqaUBKTNV-1">
          <mxGeometry x="1361" y="880" width="50" height="30" as="geometry" />
        </mxCell>
      </root>
    </mxGraphModel>
  </diagram>
</mxfile>
